<mxfile host="app.diagrams.net" agent="Mozilla/5.0 (Windows NT 10.0; Win64; x64) AppleWebKit/537.36 (KHTML, like Gecko) Chrome/128.0.0.0 Safari/537.36" version="24.7.14">
  <diagram name="Pagina-1" id="IS6o6Sr_IXAzMne3xU7P">
    <mxGraphModel dx="1050" dy="565" grid="1" gridSize="10" guides="1" tooltips="1" connect="1" arrows="1" fold="1" page="1" pageScale="1" pageWidth="827" pageHeight="1169" math="0" shadow="0">
      <root>
        <mxCell id="0" />
        <mxCell id="1" parent="0" />
        <mxCell id="83xY_qwSaF57NiggDMx2-1" value="Persoon" style="swimlane;whiteSpace=wrap;startSize=20;swimlaneLine=1;shadow=0;strokeColor=default;fillColor=default;" vertex="1" parent="1">
          <mxGeometry x="40" y="40" width="360" height="680" as="geometry">
            <mxRectangle x="40" y="40" width="90" height="30" as="alternateBounds" />
          </mxGeometry>
        </mxCell>
        <mxCell id="83xY_qwSaF57NiggDMx2-2" style="edgeStyle=orthogonalEdgeStyle;rounded=0;orthogonalLoop=1;jettySize=auto;html=1;entryX=0.5;entryY=0;entryDx=0;entryDy=0;shadow=0;" edge="1" parent="83xY_qwSaF57NiggDMx2-1" source="83xY_qwSaF57NiggDMx2-3" target="83xY_qwSaF57NiggDMx2-5">
          <mxGeometry relative="1" as="geometry" />
        </mxCell>
        <mxCell id="83xY_qwSaF57NiggDMx2-3" value="" style="ellipse;shape=startState;fillColor=#000000;strokeColor=none;shadow=0;" vertex="1" parent="83xY_qwSaF57NiggDMx2-1">
          <mxGeometry x="165" y="39" width="30" height="30" as="geometry" />
        </mxCell>
        <mxCell id="83xY_qwSaF57NiggDMx2-20" style="edgeStyle=orthogonalEdgeStyle;rounded=0;orthogonalLoop=1;jettySize=auto;html=1;entryX=0.5;entryY=0;entryDx=0;entryDy=0;shadow=0;" edge="1" parent="83xY_qwSaF57NiggDMx2-1" source="83xY_qwSaF57NiggDMx2-5" target="83xY_qwSaF57NiggDMx2-18">
          <mxGeometry relative="1" as="geometry" />
        </mxCell>
        <mxCell id="83xY_qwSaF57NiggDMx2-5" value="Stap in auto" style="shadow=0;" vertex="1" parent="83xY_qwSaF57NiggDMx2-1">
          <mxGeometry x="120" y="99" width="120" height="40" as="geometry" />
        </mxCell>
        <mxCell id="83xY_qwSaF57NiggDMx2-26" style="edgeStyle=orthogonalEdgeStyle;rounded=0;orthogonalLoop=1;jettySize=auto;html=1;entryX=0.5;entryY=0;entryDx=0;entryDy=0;shadow=0;" edge="1" parent="83xY_qwSaF57NiggDMx2-1" source="83xY_qwSaF57NiggDMx2-7" target="83xY_qwSaF57NiggDMx2-10">
          <mxGeometry relative="1" as="geometry" />
        </mxCell>
        <mxCell id="83xY_qwSaF57NiggDMx2-7" value="Rij naar werk" style="shadow=0;" vertex="1" parent="83xY_qwSaF57NiggDMx2-1">
          <mxGeometry x="45" y="259" width="120" height="40" as="geometry" />
        </mxCell>
        <mxCell id="83xY_qwSaF57NiggDMx2-8" style="edgeStyle=orthogonalEdgeStyle;rounded=0;orthogonalLoop=1;jettySize=auto;html=1;shadow=0;" edge="1" parent="83xY_qwSaF57NiggDMx2-1" source="83xY_qwSaF57NiggDMx2-10" target="83xY_qwSaF57NiggDMx2-12">
          <mxGeometry relative="1" as="geometry" />
        </mxCell>
        <mxCell id="83xY_qwSaF57NiggDMx2-32" style="edgeStyle=orthogonalEdgeStyle;rounded=0;orthogonalLoop=1;jettySize=auto;html=1;entryX=0.5;entryY=0;entryDx=0;entryDy=0;exitX=1;exitY=0.5;exitDx=0;exitDy=0;shadow=0;" edge="1" parent="83xY_qwSaF57NiggDMx2-1" source="83xY_qwSaF57NiggDMx2-10" target="83xY_qwSaF57NiggDMx2-14">
          <mxGeometry relative="1" as="geometry" />
        </mxCell>
        <mxCell id="83xY_qwSaF57NiggDMx2-10" value="File &#xa;onderweg" style="rhombus;fillColor=default;strokeColor=default;shadow=0;" vertex="1" parent="83xY_qwSaF57NiggDMx2-1">
          <mxGeometry x="61.25" y="339" width="87.5" height="60" as="geometry" />
        </mxCell>
        <mxCell id="83xY_qwSaF57NiggDMx2-34" style="edgeStyle=orthogonalEdgeStyle;rounded=0;orthogonalLoop=1;jettySize=auto;html=1;exitX=0.5;exitY=1;exitDx=0;exitDy=0;entryX=0;entryY=0.5;entryDx=0;entryDy=0;shadow=0;" edge="1" parent="83xY_qwSaF57NiggDMx2-1" source="83xY_qwSaF57NiggDMx2-12" target="83xY_qwSaF57NiggDMx2-14">
          <mxGeometry relative="1" as="geometry">
            <Array as="points">
              <mxPoint x="100" y="560" />
            </Array>
          </mxGeometry>
        </mxCell>
        <mxCell id="83xY_qwSaF57NiggDMx2-12" value="Koffie in kantine" style="shadow=0;" vertex="1" parent="83xY_qwSaF57NiggDMx2-1">
          <mxGeometry x="45" y="450" width="120" height="40" as="geometry" />
        </mxCell>
        <mxCell id="83xY_qwSaF57NiggDMx2-13" style="edgeStyle=orthogonalEdgeStyle;rounded=0;orthogonalLoop=1;jettySize=auto;html=1;entryX=0.5;entryY=0;entryDx=0;entryDy=0;shadow=0;" edge="1" parent="83xY_qwSaF57NiggDMx2-1" source="83xY_qwSaF57NiggDMx2-14" target="83xY_qwSaF57NiggDMx2-15">
          <mxGeometry relative="1" as="geometry" />
        </mxCell>
        <mxCell id="83xY_qwSaF57NiggDMx2-14" value="Kop koffie mee &#xa;naar bureau" style="shadow=0;" vertex="1" parent="83xY_qwSaF57NiggDMx2-1">
          <mxGeometry x="120" y="540" width="120" height="40" as="geometry" />
        </mxCell>
        <mxCell id="83xY_qwSaF57NiggDMx2-15" value="" style="ellipse;shape=startState;fillColor=#000000;strokeColor=none;shadow=0;" vertex="1" parent="83xY_qwSaF57NiggDMx2-1">
          <mxGeometry x="165" y="611" width="30" height="30" as="geometry" />
        </mxCell>
        <mxCell id="83xY_qwSaF57NiggDMx2-16" value="Ja" style="text;html=1;align=center;verticalAlign=middle;whiteSpace=wrap;rounded=0;shadow=0;" vertex="1" parent="83xY_qwSaF57NiggDMx2-1">
          <mxGeometry x="135" y="329" width="60" height="30" as="geometry" />
        </mxCell>
        <mxCell id="83xY_qwSaF57NiggDMx2-17" value="Nee" style="text;html=1;align=center;verticalAlign=middle;whiteSpace=wrap;rounded=0;shadow=0;" vertex="1" parent="83xY_qwSaF57NiggDMx2-1">
          <mxGeometry x="45" y="410" width="60" height="30" as="geometry" />
        </mxCell>
        <mxCell id="83xY_qwSaF57NiggDMx2-21" style="edgeStyle=orthogonalEdgeStyle;rounded=0;orthogonalLoop=1;jettySize=auto;html=1;exitX=0;exitY=0.5;exitDx=0;exitDy=0;shadow=0;" edge="1" parent="83xY_qwSaF57NiggDMx2-1" source="83xY_qwSaF57NiggDMx2-18" target="83xY_qwSaF57NiggDMx2-7">
          <mxGeometry relative="1" as="geometry" />
        </mxCell>
        <mxCell id="83xY_qwSaF57NiggDMx2-23" style="edgeStyle=orthogonalEdgeStyle;rounded=0;orthogonalLoop=1;jettySize=auto;html=1;entryX=0.5;entryY=0;entryDx=0;entryDy=0;exitX=1;exitY=0.5;exitDx=0;exitDy=0;shadow=0;" edge="1" parent="83xY_qwSaF57NiggDMx2-1" source="83xY_qwSaF57NiggDMx2-18" target="83xY_qwSaF57NiggDMx2-22">
          <mxGeometry relative="1" as="geometry" />
        </mxCell>
        <mxCell id="83xY_qwSaF57NiggDMx2-18" value="Start auto" style="rhombus;fillColor=default;strokeColor=default;shadow=0;" vertex="1" parent="83xY_qwSaF57NiggDMx2-1">
          <mxGeometry x="136.25" y="169" width="87.5" height="60" as="geometry" />
        </mxCell>
        <mxCell id="83xY_qwSaF57NiggDMx2-30" style="edgeStyle=orthogonalEdgeStyle;rounded=0;orthogonalLoop=1;jettySize=auto;html=1;entryX=1;entryY=0.5;entryDx=0;entryDy=0;exitX=0.5;exitY=1;exitDx=0;exitDy=0;shadow=0;" edge="1" parent="83xY_qwSaF57NiggDMx2-1" source="83xY_qwSaF57NiggDMx2-22" target="83xY_qwSaF57NiggDMx2-14">
          <mxGeometry relative="1" as="geometry">
            <mxPoint x="335" y="559" as="targetPoint" />
            <Array as="points">
              <mxPoint x="255" y="560" />
            </Array>
          </mxGeometry>
        </mxCell>
        <mxCell id="83xY_qwSaF57NiggDMx2-22" value="Neem trein" style="shadow=0;" vertex="1" parent="83xY_qwSaF57NiggDMx2-1">
          <mxGeometry x="195" y="259" width="120" height="40" as="geometry" />
        </mxCell>
        <mxCell id="83xY_qwSaF57NiggDMx2-24" value="Ja" style="text;html=1;align=center;verticalAlign=middle;whiteSpace=wrap;rounded=0;shadow=0;" vertex="1" parent="83xY_qwSaF57NiggDMx2-1">
          <mxGeometry x="85" y="169" width="60" height="30" as="geometry" />
        </mxCell>
        <mxCell id="83xY_qwSaF57NiggDMx2-25" value="Nee" style="text;html=1;align=center;verticalAlign=middle;whiteSpace=wrap;rounded=0;shadow=0;" vertex="1" parent="83xY_qwSaF57NiggDMx2-1">
          <mxGeometry x="218.75" y="169" width="60" height="30" as="geometry" />
        </mxCell>
        <mxCell id="83xY_qwSaF57NiggDMx2-35" style="edgeStyle=orthogonalEdgeStyle;rounded=0;orthogonalLoop=1;jettySize=auto;html=1;exitX=0.5;exitY=1;exitDx=0;exitDy=0;shadow=0;" edge="1" parent="83xY_qwSaF57NiggDMx2-1" source="83xY_qwSaF57NiggDMx2-3" target="83xY_qwSaF57NiggDMx2-3">
          <mxGeometry relative="1" as="geometry" />
        </mxCell>
      </root>
    </mxGraphModel>
  </diagram>
</mxfile>
